<svg width="21" height="20" viewBox="0 0 21 20" fill="none" xmlns="http://www.w3.org/2000/svg">
<path d="M1 5L6 1C6 1 1 11.5 1 15" stroke="#1434E1" stroke-width="2" stroke-linecap="round" stroke-linejoin="round"/>
<path d="M10.4359 1C8.9359 1.5 7.9359 4 7.4359 6C6.9359 8 6.34415 11 8.9359 11C12.5276 11 12.0277 3 12.0277 3" stroke="#1434E1" stroke-width="2" stroke-linecap="round"/>
<path d="M17.4359 1C15.9359 1.5 14.9359 4 14.4359 6C13.9359 8 13.3441 11 15.9359 11C19.5276 11 19.0277 3 19.0277 3" stroke="#1434E1" stroke-width="2" stroke-linecap="round"/>
<path d="M5 15C5 15 10 13 16 14" stroke="#1434E1" stroke-width="2" stroke-linecap="round"/>
<path d="M17 17C8.5 16.102 2 19 2 19" stroke="#1434E1" stroke-width="2" stroke-linecap="round" stroke-linejoin="round"/>
</svg>
